Coordinates
version=1
nRows=17
nColumns=40
inDegrees=yes

Units are S.I. units (second, meters, Newtons, ...)
Angles are in degrees.

endheader
time	pelvis_tilt	pelvis_list	pelvis_rotation	pelvis_tx	pelvis_ty	pelvis_tz	hip_flexion_r	hip_adduction_r	hip_rotation_r	knee_angle_r	knee_angle_r_beta	ankle_angle_r	subtalar_angle_r	mtp_angle_r	hip_flexion_l	hip_adduction_l	hip_rotation_l	knee_angle_l	knee_angle_l_beta	ankle_angle_l	subtalar_angle_l	mtp_angle_l	lumbar_extension	lumbar_bending	lumbar_rotation	arm_flex_r	arm_add_r	arm_rot_r	elbow_flex_r	pro_sup_r	wrist_flex_r	wrist_dev_r	arm_flex_l	arm_add_l	arm_rot_l	elbow_flex_l	pro_sup_l	wrist_flex_l	wrist_dev_l
     37.88250000	     -2.21475467	     -4.54491541	     -4.05177988	      1.13330103	      0.92824515	      0.51293557	     17.56771958	      1.56167706	    -10.37099206	     20.52315772	     20.52315772	      6.55688216	     -2.27254751	     -3.68175417	      3.53722990	    -10.20535780	     -9.06166853	     34.54014551	     34.54014551	     13.81801126	    -13.80188368	     -8.20361121	     -9.56960963	      5.75805495	     -0.31916011	      1.14699511	    -14.66615868	     -8.17668633	     38.43748952	     45.38537442	      0.00000000	      0.00000000	      9.50707468	    -10.87510136	     -6.85746528	     36.98019875	     46.71297881	      0.00000000	      0.00000000
     37.89600000	     -2.10739926	     -4.61587189	     -3.74236138	      1.13407804	      0.92893281	      0.51578592	     16.86472582	      1.74485707	    -10.73469551	     20.30984643	     20.30984643	      6.93630631	     -2.05780441	     -3.79274804	      5.35594404	    -10.84626840	     -8.14383125	     38.50796117	     38.50796117	     12.34862238	    -14.89436847	     -8.37244120	     -9.63619321	      5.90635733	     -0.14244185	      1.86811647	    -14.81007618	     -8.10050507	     39.02236939	     45.36784007	      0.00000000	      0.00000000	      8.78197459	    -10.84569419	     -6.93169350	     36.47208456	     46.70668650	      0.00000000	      0.00000000
     37.90950000	     -2.05060446	     -4.56836070	     -3.38585463	      1.13454105	      0.92940061	      0.51830011	     16.30611766	      1.71834445	    -11.31664154	     20.24495067	     20.24495067	      7.36982662	     -1.53738134	     -4.04030896	      7.36870476	    -11.22035826	     -7.03947273	     42.48182723	     42.48182723	     10.94259087	    -16.07392331	     -7.50882632	     -9.66072941	      5.93797442	     -0.22592080	      2.32026638	    -15.10078892	     -7.46102350	     40.77549390	     45.28545004	      0.00000000	      0.00000000	      8.17741180	    -10.80532288	     -7.33304518	     35.50643036	     46.73281278	      0.00000000	      0.00000000
     37.92300000	     -1.94610224	     -4.72010857	     -3.01220124	      1.13481898	      0.92984339	      0.52083682	     15.61161034	      1.97417886	    -11.75512689	     19.99781491	     19.99781491	      7.69492825	     -1.32882416	     -4.11697404	      9.35577493	    -11.86016923	     -6.10456449	     46.29362398	     46.29362398	      9.43229574	    -16.77634825	     -7.10879547	     -9.78664605	      6.14532383	      0.08419371	      2.94353790	    -15.42329428	     -7.38593092	     41.39013570	     45.26589518	      0.00000000	      0.00000000	      7.66129767	    -10.67277366	     -7.40026711	     35.11946656	     46.72992860	      0.00000000	      0.00000000
     37.93650000	     -1.95349981	     -4.62758117	     -2.59945279	      1.13474682	      0.92997145	      0.52287176	     15.21364650	      1.85717100	    -12.37587863	     20.04365840	     20.04365840	      8.13280203	     -0.78773680	     -4.38685004	     11.64462013	    -11.98461712	     -4.88964694	     50.13290475	     50.13290475	      9.31908260	    -17.10680084	     -2.98190571	     -9.80338572	      6.14473877	     -0.06238367	      3.15222744	    -15.91738737	     -6.42875205	     44.05160195	     45.13777178	      0.00000000	      0.00000000	      7.12197051	    -10.60209955	     -7.91717874	     34.00713822	     46.77129511	      0.00000000	      0.00000000
     37.95000000	     -1.90611439	     -4.72588411	     -2.20242981	      1.13453375	      0.93021676	      0.52488281	     14.62395688	      2.04405088	    -12.77579574	     19.79543705	     19.79543705	      8.45447542	     -0.63356293	     -4.40030778	     13.84093965	    -12.36384793	     -3.92845620	     53.62813253	     53.62813253	      9.70850282	    -16.85576950	      1.64779961	     -9.91814254	      6.31270274	      0.54941336	      3.14175466	    -16.80371769	     -5.26176365	     45.88729049	     45.05556815	      0.00000000	      0.00000000	      6.94853434	    -10.24357775	     -8.60714579	     33.37999779	     46.82825488	      0.00000000	      0.00000000
     37.96350000	     -1.82807007	     -4.81498534	     -1.82581247	      1.13414240	      0.93047647	      0.52688032	     14.05604575	      2.22983071	    -13.10487768	     19.61893162	     19.61893162	      8.75676354	     -0.55957574	     -4.46214186	     15.75593381	    -12.76601780	     -3.23400787	     56.22336821	     56.22336821	      8.61027386	    -17.29236348	      2.01442939	    -10.08957870	      6.44447123	      0.86465025	      3.96488933	    -17.19763494	     -5.32726873	     46.32842828	     45.05151935	      0.00000000	      0.00000000	      6.49795724	    -10.19454959	     -8.65157248	     33.12203988	     46.82387827	      0.00000000	      0.00000000
     37.97700000	     -1.80648255	     -4.85008050	     -1.41789730	      1.13360850	      0.93071615	      0.52861601	     13.54996960	      2.35135227	    -13.44231837	     19.40984329	     19.40984329	      9.03788391	     -0.51235398	     -4.51193752	     17.67390688	    -13.04885269	     -2.60302933	     58.29813170	     58.29813170	      7.87140401	    -17.61997993	      2.61748396	    -10.18545500	      6.52531027	      1.10039419	      4.76229179	    -17.59401086	     -5.35930224	     46.88420972	     45.04115539	      0.00000000	      0.00000000	      5.98988173	    -10.14205651	     -8.70902689	     32.83599258	     46.82067825	      0.00000000	      0.00000000
     37.99050000	     -1.82565613	     -4.75616146	     -0.97359071	      1.13292631	      0.93095699	      0.52999965	     13.10705789	      2.29605030	    -13.83198263	     19.22517280	     19.22517280	      9.36667352	     -0.32220539	     -4.68645502	     19.73629788	    -13.01539242	     -1.87985754	     60.16187388	     60.16187388	      9.20411229	    -17.39576596	      7.96884152	    -10.23136713	      6.47762746	      1.02752934	      5.19675613	    -18.23197615	     -4.26354839	     48.93447009	     44.95514062	      0.00000000	      0.00000000	      5.38955365	    -10.06171103	     -9.43299284	     32.45116962	     46.88438102	      0.00000000	      0.00000000
     38.00400000	     -1.82428419	     -4.72247475	     -0.55408363	      1.13209455	      0.93138150	      0.53137227	     12.60601709	      2.35856147	    -14.09846106	     18.93111257	     18.93111257	      9.57233456	     -0.39194459	     -4.67218775	     21.45876575	    -13.19404439	     -1.56543988	     60.98394141	     60.98394141	      8.88332756	    -17.63399261	      8.09301625	    -10.38380029	      6.50306414	      1.46694213	      5.97182121	    -18.71167139	     -4.33327112	     49.20530941	     44.95694530	      0.00000000	      0.00000000	      5.02333216	     -9.95532238	     -9.48396298	     32.29612988	     46.88269418	      0.00000000	      0.00000000
     38.01750000	     -1.87136158	     -4.69763914	     -0.07242172	      1.13118291	      0.93178700	      0.53252862	     12.07668051	      2.45521713	    -14.34261649	     18.45321051	     18.45321051	      9.74690655	     -0.45136932	     -4.65117854	     23.17924677	    -13.28783394	     -1.21424765	     61.26055358	     61.26055358	      8.86753625	    -17.87501948	      8.60428732	    -10.39254127	      6.51184018	      1.55123984	      6.79242698	    -19.05163763	     -4.25229495	     49.71446513	     44.94821027	      0.00000000	      0.00000000	      4.53131618	     -9.92044839	     -9.63668488	     32.06339795	     46.88989694	      0.00000000	      0.00000000
     38.03100000	     -1.77574031	     -4.54487602	      0.32525103	      1.13027507	      0.93237603	      0.53369496	     11.57264583	      2.38023750	    -14.55934141	     18.35593953	     18.35593953	     10.10161721	     -0.62864906	     -4.72140760	     24.48899828	    -13.33949361	     -1.28001897	     60.78603232	     60.78603232	      9.00590746	    -17.94890823	      8.62604006	    -10.67516948	      6.30860092	      2.02282747	      7.31141951	    -19.26131005	     -4.28476779	     49.88474077	     44.94719093	      0.00000000	      0.00000000	      4.23153914	     -9.89999960	     -9.66071762	     31.95525548	     46.88796579	      0.00000000	      0.00000000
     38.04450000	     -1.96592935	     -4.44702864	      0.84868893	      1.12909833	      0.93285611	      0.53428059	     11.04576600	      2.41470347	    -14.82643097	     17.52958375	     17.52958375	     10.04837778	     -0.66023685	     -4.61653866	     26.08341886	    -13.17495540	     -1.02592521	     59.78135971	     59.78135971	      9.17219058	    -18.28929101	      9.22357068	    -10.55149777	      6.32204562	      1.97014908	      8.39950597	    -19.81013042	     -4.22176383	     50.51724706	     44.93490701	      0.00000000	      0.00000000	      3.78004215	     -9.82555147	     -9.81320802	     31.78124962	     46.89721408	      0.00000000	      0.00000000
     38.05800000	     -2.03665678	     -4.33617730	      1.31034175	      1.12786710	      0.93324040	      0.53490457	     10.70606325	      2.35942034	    -15.07579631	     17.33987237	     17.33987237	     10.23386960	     -0.83282757	     -4.64828568	     27.34478583	    -13.07430142	     -1.03472071	     58.20594292	     58.20594292	      9.48657619	    -18.22638681	      9.37733207	    -10.60831203	      6.26773779	      2.35814913	      9.15219865	    -20.24188461	     -4.28099027	     50.78957160	     44.93356700	      0.00000000	      0.00000000	      3.55594716	     -9.76774243	     -9.84907195	     31.71758738	     46.89767954	      0.00000000	      0.00000000
     38.07150000	     -2.13486314	     -4.08475418	      1.80011777	      1.12665443	      0.93390007	      0.53519297	     10.06058451	      2.23790996	    -15.26652103	     16.49203271	     16.49203271	     10.22955988	     -0.90355593	     -4.63733354	     28.40268149	    -12.63794084	     -1.02702846	     55.98943383	     55.98943383	      9.67085838	    -18.42969289	      9.98372747	    -10.66591510	      6.03952596	      2.32067565	     10.04783888	    -20.58553427	     -4.09356970	     51.33862067	     44.91742054	      0.00000000	      0.00000000	      3.14403766	     -9.73663644	    -10.03149795	     31.58160414	     46.91217776	      0.00000000	      0.00000000
     38.08500000	     -2.27030920	     -4.15559628	      2.29712206	      1.12526096	      0.93390467	      0.53553728	      9.84090700	      2.35624171	    -15.57345145	     16.38298094	     16.38298094	     10.50503881	     -1.10151097	     -4.74318502	     29.52546204	    -12.54032471	     -0.89077650	     53.58748469	     53.58748469	      9.96179058	    -18.15285833	     10.21261537	    -10.66451491	      6.19532724	      2.71724188	     10.75762733	    -20.96592673	     -4.13976582	     51.59050626	     44.91562773	      0.00000000	      0.00000000	      2.96655325	     -9.69304674	    -10.06535572	     31.54174380	     46.91344147	      0.00000000	      0.00000000
     38.09850000	     -2.34117000	     -3.80912787	      2.79885670	      1.12400217	      0.93467753	      0.53527934	      9.02897392	      2.12675665	    -15.88096959	     15.25915621	     15.25915621	     10.21505905	     -1.06340083	     -5.05603409	     30.08867537	    -11.79282802	     -0.89341876	     50.35845863	     50.35845863	      9.91190562	    -18.31425597	     10.78367286	    -10.79909719	      5.94779627	      2.39111646	     11.82861396	    -21.45362973	     -3.46529318	     52.33366658	     44.88232272	      0.00000000	      0.00000000	      2.53733774	     -9.57291531	    -10.53772958	     31.43749646	     46.96157954	      0.00000000	      0.00000000
